<mxfile host="65bd71144e">
    <diagram name="Page-1" id="hLnUzKsIZfY_c8V2M1LN">
        <mxGraphModel dx="1767" dy="567" grid="1" gridSize="10" guides="1" tooltips="1" connect="1" arrows="1" fold="1" page="1" pageScale="1" pageWidth="850" pageHeight="1100" math="0" shadow="0">
            <root>
                <mxCell id="0"/>
                <mxCell id="1" parent="0"/>
                <mxCell id="ncw5knBwVA3gmAysDetF-1" value="start" style="ellipse;whiteSpace=wrap;html=1;" parent="1" vertex="1">
                    <mxGeometry x="205" y="5" width="120" height="80" as="geometry"/>
                </mxCell>
                <mxCell id="ncw5knBwVA3gmAysDetF-2" style="edgeStyle=orthogonalEdgeStyle;rounded=0;orthogonalLoop=1;jettySize=auto;html=1;entryX=0.5;entryY=0;entryDx=0;entryDy=0;" parent="1" source="ncw5knBwVA3gmAysDetF-3" target="ncw5knBwVA3gmAysDetF-8" edge="1">
                    <mxGeometry relative="1" as="geometry"/>
                </mxCell>
                <mxCell id="ncw5knBwVA3gmAysDetF-3" value="" style="verticalLabelPosition=bottom;verticalAlign=top;html=1;shape=card;whiteSpace=wrap;size=20;arcSize=12;" parent="1" vertex="1">
                    <mxGeometry x="215" y="125" width="100" height="60" as="geometry"/>
                </mxCell>
                <mxCell id="ncw5knBwVA3gmAysDetF-4" style="edgeStyle=orthogonalEdgeStyle;rounded=0;orthogonalLoop=1;jettySize=auto;html=1;entryX=0.5;entryY=0;entryDx=0;entryDy=0;" parent="1" source="ncw5knBwVA3gmAysDetF-5" target="ncw5knBwVA3gmAysDetF-6" edge="1">
                    <mxGeometry relative="1" as="geometry"/>
                </mxCell>
                <mxCell id="ncw5knBwVA3gmAysDetF-5" value="sum" style="strokeWidth=2;html=1;shape=mxgraph.flowchart.document2;whiteSpace=wrap;size=0.25;" parent="1" vertex="1">
                    <mxGeometry x="175" y="365" width="180" height="100" as="geometry"/>
                </mxCell>
                <mxCell id="ncw5knBwVA3gmAysDetF-6" value="stop" style="ellipse;whiteSpace=wrap;html=1;" parent="1" vertex="1">
                    <mxGeometry x="205" y="495" width="120" height="80" as="geometry"/>
                </mxCell>
                <mxCell id="ncw5knBwVA3gmAysDetF-7" style="edgeStyle=orthogonalEdgeStyle;rounded=0;orthogonalLoop=1;jettySize=auto;html=1;" parent="1" source="ncw5knBwVA3gmAysDetF-8" target="ncw5knBwVA3gmAysDetF-5" edge="1">
                    <mxGeometry relative="1" as="geometry"/>
                </mxCell>
                <mxCell id="ncw5knBwVA3gmAysDetF-8" value="" style="rounded=1;whiteSpace=wrap;html=1;" parent="1" vertex="1">
                    <mxGeometry x="170" y="235" width="190" height="90" as="geometry"/>
                </mxCell>
                <mxCell id="ncw5knBwVA3gmAysDetF-9" value="&lt;span style=&quot;color: rgb(0, 0, 0); background-color: rgb(251, 251, 251);&quot;&gt;num&lt;/span&gt;" style="text;html=1;align=center;verticalAlign=middle;whiteSpace=wrap;rounded=0;" parent="1" vertex="1">
                    <mxGeometry x="235" y="140" width="70" height="30" as="geometry"/>
                </mxCell>
                <mxCell id="ncw5knBwVA3gmAysDetF-10" value="&lt;span style=&quot;color: rgb(0, 0, 0); background-color: rgb(251, 251, 251);&quot;&gt;rn=num%10&lt;/span&gt;&lt;div style=&quot;color: rgb(0, 0, 0); background-color: rgb(251, 251, 251);&quot;&gt;In=(num-rn)/10&lt;/div&gt;&lt;div style=&quot;color: rgb(0, 0, 0); background-color: rgb(251, 251, 251);&quot;&gt;sum=rn+In&lt;/div&gt;" style="text;html=1;align=center;verticalAlign=middle;whiteSpace=wrap;rounded=0;" parent="1" vertex="1">
                    <mxGeometry x="175" y="247.5" width="180" height="65" as="geometry"/>
                </mxCell>
                <mxCell id="ncw5knBwVA3gmAysDetF-11" style="edgeStyle=orthogonalEdgeStyle;rounded=0;orthogonalLoop=1;jettySize=auto;html=1;entryX=0.5;entryY=0;entryDx=0;entryDy=0;entryPerimeter=0;" parent="1" source="ncw5knBwVA3gmAysDetF-1" target="ncw5knBwVA3gmAysDetF-3" edge="1">
                    <mxGeometry relative="1" as="geometry"/>
                </mxCell>
                <mxCell id="ncw5knBwVA3gmAysDetF-36" value="start" style="ellipse;whiteSpace=wrap;html=1;" parent="1" vertex="1">
                    <mxGeometry x="430" width="120" height="80" as="geometry"/>
                </mxCell>
                <mxCell id="ncw5knBwVA3gmAysDetF-37" style="edgeStyle=orthogonalEdgeStyle;rounded=0;orthogonalLoop=1;jettySize=auto;html=1;entryX=0.5;entryY=0;entryDx=0;entryDy=0;" parent="1" source="ncw5knBwVA3gmAysDetF-38" target="ncw5knBwVA3gmAysDetF-43" edge="1">
                    <mxGeometry relative="1" as="geometry"/>
                </mxCell>
                <mxCell id="ncw5knBwVA3gmAysDetF-38" value="" style="verticalLabelPosition=bottom;verticalAlign=top;html=1;shape=card;whiteSpace=wrap;size=20;arcSize=12;" parent="1" vertex="1">
                    <mxGeometry x="417.5" y="120" width="145" height="65" as="geometry"/>
                </mxCell>
                <mxCell id="ncw5knBwVA3gmAysDetF-39" style="edgeStyle=orthogonalEdgeStyle;rounded=0;orthogonalLoop=1;jettySize=auto;html=1;entryX=0.5;entryY=0;entryDx=0;entryDy=0;" parent="1" source="ncw5knBwVA3gmAysDetF-40" target="ncw5knBwVA3gmAysDetF-41" edge="1">
                    <mxGeometry relative="1" as="geometry"/>
                </mxCell>
                <mxCell id="ncw5knBwVA3gmAysDetF-40" value="meot" style="strokeWidth=2;html=1;shape=mxgraph.flowchart.document2;whiteSpace=wrap;size=0.25;" parent="1" vertex="1">
                    <mxGeometry x="400" y="360" width="180" height="100" as="geometry"/>
                </mxCell>
                <mxCell id="ncw5knBwVA3gmAysDetF-41" value="stop" style="ellipse;whiteSpace=wrap;html=1;" parent="1" vertex="1">
                    <mxGeometry x="430" y="490" width="120" height="80" as="geometry"/>
                </mxCell>
                <mxCell id="ncw5knBwVA3gmAysDetF-42" style="edgeStyle=orthogonalEdgeStyle;rounded=0;orthogonalLoop=1;jettySize=auto;html=1;" parent="1" source="ncw5knBwVA3gmAysDetF-43" target="ncw5knBwVA3gmAysDetF-40" edge="1">
                    <mxGeometry relative="1" as="geometry"/>
                </mxCell>
                <mxCell id="ncw5knBwVA3gmAysDetF-43" value="" style="rounded=1;whiteSpace=wrap;html=1;" parent="1" vertex="1">
                    <mxGeometry x="395" y="230" width="190" height="90" as="geometry"/>
                </mxCell>
                <mxCell id="ncw5knBwVA3gmAysDetF-44" value="&lt;span style=&quot;color: rgb(0, 0, 0); background-color: rgb(251, 251, 251);&quot;&gt;num&lt;/span&gt;" style="text;html=1;align=center;verticalAlign=middle;whiteSpace=wrap;rounded=0;" parent="1" vertex="1">
                    <mxGeometry x="460" y="135" width="70" height="30" as="geometry"/>
                </mxCell>
                <mxCell id="ncw5knBwVA3gmAysDetF-45" value="&lt;span style=&quot;color: rgb(0, 0, 0); background-color: rgb(251, 251, 251);&quot;&gt;mod=num%100&lt;/span&gt;&lt;div style=&quot;color: rgb(0, 0, 0); background-color: rgb(251, 251, 251);&quot;&gt;meot=(num-mod)/100&lt;/div&gt;" style="text;html=1;align=center;verticalAlign=middle;whiteSpace=wrap;rounded=0;" parent="1" vertex="1">
                    <mxGeometry x="400" y="242.5" width="180" height="65" as="geometry"/>
                </mxCell>
                <mxCell id="ncw5knBwVA3gmAysDetF-46" style="edgeStyle=orthogonalEdgeStyle;rounded=0;orthogonalLoop=1;jettySize=auto;html=1;entryX=0.5;entryY=0;entryDx=0;entryDy=0;entryPerimeter=0;" parent="1" source="ncw5knBwVA3gmAysDetF-36" target="ncw5knBwVA3gmAysDetF-38" edge="1">
                    <mxGeometry relative="1" as="geometry"/>
                </mxCell>
                <mxCell id="ncw5knBwVA3gmAysDetF-47" value="start" style="ellipse;whiteSpace=wrap;html=1;" parent="1" vertex="1">
                    <mxGeometry x="320" y="625" width="120" height="80" as="geometry"/>
                </mxCell>
                <mxCell id="ncw5knBwVA3gmAysDetF-48" style="edgeStyle=orthogonalEdgeStyle;rounded=0;orthogonalLoop=1;jettySize=auto;html=1;entryX=0.5;entryY=0;entryDx=0;entryDy=0;" parent="1" source="ncw5knBwVA3gmAysDetF-49" target="ncw5knBwVA3gmAysDetF-54" edge="1">
                    <mxGeometry relative="1" as="geometry"/>
                </mxCell>
                <mxCell id="ncw5knBwVA3gmAysDetF-49" value="" style="verticalLabelPosition=bottom;verticalAlign=top;html=1;shape=card;whiteSpace=wrap;size=20;arcSize=12;" parent="1" vertex="1">
                    <mxGeometry x="307.5" y="745" width="145" height="65" as="geometry"/>
                </mxCell>
                <mxCell id="ncw5knBwVA3gmAysDetF-50" style="edgeStyle=orthogonalEdgeStyle;rounded=0;orthogonalLoop=1;jettySize=auto;html=1;entryX=0.5;entryY=0;entryDx=0;entryDy=0;" parent="1" source="ncw5knBwVA3gmAysDetF-51" target="ncw5knBwVA3gmAysDetF-52" edge="1">
                    <mxGeometry relative="1" as="geometry"/>
                </mxCell>
                <mxCell id="ncw5knBwVA3gmAysDetF-51" value="&quot;new sum of numbers is:&quot; + newSum" style="strokeWidth=2;html=1;shape=mxgraph.flowchart.document2;whiteSpace=wrap;size=0.25;" parent="1" vertex="1">
                    <mxGeometry x="290" y="985" width="180" height="100" as="geometry"/>
                </mxCell>
                <mxCell id="ncw5knBwVA3gmAysDetF-52" value="stop" style="ellipse;whiteSpace=wrap;html=1;" parent="1" vertex="1">
                    <mxGeometry x="320" y="1115" width="120" height="80" as="geometry"/>
                </mxCell>
                <mxCell id="ncw5knBwVA3gmAysDetF-53" style="edgeStyle=orthogonalEdgeStyle;rounded=0;orthogonalLoop=1;jettySize=auto;html=1;" parent="1" source="ncw5knBwVA3gmAysDetF-54" target="ncw5knBwVA3gmAysDetF-51" edge="1">
                    <mxGeometry relative="1" as="geometry"/>
                </mxCell>
                <mxCell id="ncw5knBwVA3gmAysDetF-54" value="" style="rounded=1;whiteSpace=wrap;html=1;" parent="1" vertex="1">
                    <mxGeometry x="285" y="855" width="190" height="90" as="geometry"/>
                </mxCell>
                <mxCell id="ncw5knBwVA3gmAysDetF-55" value="num" style="text;html=1;align=center;verticalAlign=middle;whiteSpace=wrap;rounded=0;" parent="1" vertex="1">
                    <mxGeometry x="350" y="760" width="70" height="30" as="geometry"/>
                </mxCell>
                <mxCell id="ncw5knBwVA3gmAysDetF-56" value="d10=int(num/10)&lt;div&gt;d1=num % 10&lt;/div&gt;&lt;div&gt;newNum= 10 *d1+d10&lt;/div&gt;" style="text;html=1;align=center;verticalAlign=middle;whiteSpace=wrap;rounded=0;" parent="1" vertex="1">
                    <mxGeometry x="290" y="867.5" width="180" height="65" as="geometry"/>
                </mxCell>
                <mxCell id="ncw5knBwVA3gmAysDetF-57" style="edgeStyle=orthogonalEdgeStyle;rounded=0;orthogonalLoop=1;jettySize=auto;html=1;entryX=0.5;entryY=0;entryDx=0;entryDy=0;entryPerimeter=0;" parent="1" source="ncw5knBwVA3gmAysDetF-47" target="ncw5knBwVA3gmAysDetF-49" edge="1">
                    <mxGeometry relative="1" as="geometry"/>
                </mxCell>
                <mxCell id="ncw5knBwVA3gmAysDetF-85" value="start" style="ellipse;whiteSpace=wrap;html=1;" parent="1" vertex="1">
                    <mxGeometry x="331" y="1220" width="120" height="80" as="geometry"/>
                </mxCell>
                <mxCell id="ncw5knBwVA3gmAysDetF-117" style="edgeStyle=orthogonalEdgeStyle;rounded=0;orthogonalLoop=1;jettySize=auto;html=1;" parent="1" source="ncw5knBwVA3gmAysDetF-87" edge="1">
                    <mxGeometry relative="1" as="geometry">
                        <mxPoint x="391" y="1440" as="targetPoint"/>
                    </mxGeometry>
                </mxCell>
                <mxCell id="ncw5knBwVA3gmAysDetF-87" value="" style="verticalLabelPosition=bottom;verticalAlign=top;html=1;shape=card;whiteSpace=wrap;size=20;arcSize=12;" parent="1" vertex="1">
                    <mxGeometry x="341" y="1340" width="100" height="60" as="geometry"/>
                </mxCell>
                <mxCell id="ncw5knBwVA3gmAysDetF-93" value="a&lt;div&gt;n&lt;/div&gt;" style="text;html=1;align=center;verticalAlign=middle;whiteSpace=wrap;rounded=0;" parent="1" vertex="1">
                    <mxGeometry x="361" y="1355" width="70" height="30" as="geometry"/>
                </mxCell>
                <mxCell id="ncw5knBwVA3gmAysDetF-95" style="edgeStyle=orthogonalEdgeStyle;rounded=0;orthogonalLoop=1;jettySize=auto;html=1;entryX=0.5;entryY=0;entryDx=0;entryDy=0;entryPerimeter=0;" parent="1" source="ncw5knBwVA3gmAysDetF-85" target="ncw5knBwVA3gmAysDetF-87" edge="1">
                    <mxGeometry relative="1" as="geometry"/>
                </mxCell>
                <mxCell id="ncw5knBwVA3gmAysDetF-114" style="edgeStyle=orthogonalEdgeStyle;rounded=0;orthogonalLoop=1;jettySize=auto;html=1;entryX=0.5;entryY=0;entryDx=0;entryDy=0;" parent="1" source="ncw5knBwVA3gmAysDetF-97" target="ncw5knBwVA3gmAysDetF-98" edge="1">
                    <mxGeometry relative="1" as="geometry">
                        <Array as="points">
                            <mxPoint x="392" y="1551"/>
                        </Array>
                    </mxGeometry>
                </mxCell>
                <mxCell id="ncw5knBwVA3gmAysDetF-97" value="read a" style="shape=parallelogram;perimeter=parallelogramPerimeter;whiteSpace=wrap;html=1;fixedSize=1;" parent="1" vertex="1">
                    <mxGeometry x="332" y="1441" width="120" height="60" as="geometry"/>
                </mxCell>
                <mxCell id="ncw5knBwVA3gmAysDetF-103" value="true" style="edgeStyle=orthogonalEdgeStyle;rounded=0;orthogonalLoop=1;jettySize=auto;html=1;entryX=0.5;entryY=0;entryDx=0;entryDy=0;" parent="1" source="ncw5knBwVA3gmAysDetF-98" target="ncw5knBwVA3gmAysDetF-100" edge="1">
                    <mxGeometry relative="1" as="geometry"/>
                </mxCell>
                <mxCell id="ncw5knBwVA3gmAysDetF-104" style="edgeStyle=orthogonalEdgeStyle;rounded=0;orthogonalLoop=1;jettySize=auto;html=1;entryX=1;entryY=0.5;entryDx=0;entryDy=0;" parent="1" source="ncw5knBwVA3gmAysDetF-98" target="ncw5knBwVA3gmAysDetF-99" edge="1">
                    <mxGeometry relative="1" as="geometry"/>
                </mxCell>
                <mxCell id="ncw5knBwVA3gmAysDetF-109" value="false" style="edgeStyle=orthogonalEdgeStyle;rounded=0;orthogonalLoop=1;jettySize=auto;html=1;exitX=1;exitY=0.5;exitDx=0;exitDy=0;entryX=1;entryY=0.5;entryDx=0;entryDy=0;" parent="1" source="ncw5knBwVA3gmAysDetF-98" target="ncw5knBwVA3gmAysDetF-100" edge="1">
                    <mxGeometry relative="1" as="geometry">
                        <mxPoint x="749" y="1551" as="targetPoint"/>
                        <mxPoint x="560" y="1690" as="sourcePoint"/>
                        <Array as="points">
                            <mxPoint x="600" y="1631"/>
                            <mxPoint x="600" y="1761"/>
                        </Array>
                    </mxGeometry>
                </mxCell>
                <mxCell id="ncw5knBwVA3gmAysDetF-98" value="while(a!=0)" style="rhombus;whiteSpace=wrap;html=1;" parent="1" vertex="1">
                    <mxGeometry x="335" y="1571" width="114" height="120" as="geometry"/>
                </mxCell>
                <mxCell id="ncw5knBwVA3gmAysDetF-105" style="edgeStyle=orthogonalEdgeStyle;rounded=0;orthogonalLoop=1;jettySize=auto;html=1;entryX=0;entryY=0.5;entryDx=0;entryDy=0;" parent="1" source="ncw5knBwVA3gmAysDetF-99" target="ncw5knBwVA3gmAysDetF-100" edge="1">
                    <mxGeometry relative="1" as="geometry">
                        <Array as="points">
                            <mxPoint x="200" y="1761"/>
                        </Array>
                    </mxGeometry>
                </mxCell>
                <mxCell id="ncw5knBwVA3gmAysDetF-99" value="n=n+1" style="rounded=1;whiteSpace=wrap;html=1;" parent="1" vertex="1">
                    <mxGeometry x="140" y="1601" width="120" height="60" as="geometry"/>
                </mxCell>
                <mxCell id="ncw5knBwVA3gmAysDetF-110" style="edgeStyle=orthogonalEdgeStyle;rounded=0;orthogonalLoop=1;jettySize=auto;html=1;entryX=0.5;entryY=0;entryDx=0;entryDy=0;" parent="1" source="ncw5knBwVA3gmAysDetF-100" target="ncw5knBwVA3gmAysDetF-101" edge="1">
                    <mxGeometry relative="1" as="geometry">
                        <Array as="points">
                            <mxPoint x="397" y="1811"/>
                        </Array>
                    </mxGeometry>
                </mxCell>
                <mxCell id="ncw5knBwVA3gmAysDetF-100" value="a=a/10" style="rounded=0;whiteSpace=wrap;html=1;" parent="1" vertex="1">
                    <mxGeometry x="331" y="1731" width="120" height="60" as="geometry"/>
                </mxCell>
                <mxCell id="ncw5knBwVA3gmAysDetF-111" style="edgeStyle=orthogonalEdgeStyle;rounded=0;orthogonalLoop=1;jettySize=auto;html=1;entryX=0.5;entryY=0;entryDx=0;entryDy=0;" parent="1" source="ncw5knBwVA3gmAysDetF-101" target="ncw5knBwVA3gmAysDetF-102" edge="1">
                    <mxGeometry relative="1" as="geometry"/>
                </mxCell>
                <mxCell id="ncw5knBwVA3gmAysDetF-101" value="print n&amp;nbsp;" style="shape=parallelogram;html=1;strokeWidth=2;perimeter=parallelogramPerimeter;whiteSpace=wrap;rounded=1;arcSize=12;size=0.23;" parent="1" vertex="1">
                    <mxGeometry x="341" y="1861" width="111" height="60" as="geometry"/>
                </mxCell>
                <mxCell id="ncw5knBwVA3gmAysDetF-102" value="stop" style="ellipse;whiteSpace=wrap;html=1;" parent="1" vertex="1">
                    <mxGeometry x="336.5" y="1981" width="120" height="80" as="geometry"/>
                </mxCell>
                <mxCell id="ncw5knBwVA3gmAysDetF-119" value="page 20 ex4" style="text;html=1;align=center;verticalAlign=middle;whiteSpace=wrap;rounded=0;" parent="1" vertex="1">
                    <mxGeometry x="258" y="1235" width="60" height="30" as="geometry"/>
                </mxCell>
                <mxCell id="ncw5knBwVA3gmAysDetF-120" value="page 15&lt;div&gt;ex 7,8&lt;/div&gt;" style="text;html=1;align=center;verticalAlign=middle;whiteSpace=wrap;rounded=0;" parent="1" vertex="1">
                    <mxGeometry x="130" y="30" width="60" height="30" as="geometry"/>
                </mxCell>
                <mxCell id="ncw5knBwVA3gmAysDetF-121" value="page 15 ex 9" style="text;html=1;align=center;verticalAlign=middle;whiteSpace=wrap;rounded=0;" parent="1" vertex="1">
                    <mxGeometry x="255" y="650" width="60" height="30" as="geometry"/>
                </mxCell>
                <mxCell id="7" value="start" style="ellipse;whiteSpace=wrap;html=1;fillColor=#f5f5f5;fontColor=#333333;strokeColor=#666666;" vertex="1" parent="1">
                    <mxGeometry x="-444" y="1" width="120" height="80" as="geometry"/>
                </mxCell>
                <mxCell id="8" style="edgeStyle=orthogonalEdgeStyle;rounded=0;orthogonalLoop=1;jettySize=auto;html=1;entryX=0.5;entryY=0;entryDx=0;entryDy=0;entryPerimeter=0;" edge="1" parent="1" source="7">
                    <mxGeometry relative="1" as="geometry">
                        <mxPoint x="-384" y="121" as="targetPoint"/>
                    </mxGeometry>
                </mxCell>
                <mxCell id="9" style="edgeStyle=orthogonalEdgeStyle;rounded=0;orthogonalLoop=1;jettySize=auto;html=1;" edge="1" parent="1" source="10" target="32">
                    <mxGeometry relative="1" as="geometry">
                        <Array as="points">
                            <mxPoint x="-610" y="800"/>
                        </Array>
                    </mxGeometry>
                </mxCell>
                <mxCell id="10" value="" style="verticalLabelPosition=bottom;verticalAlign=top;html=1;shape=mxgraph.flowchart.on-page_reference;" vertex="1" parent="1">
                    <mxGeometry x="-640" y="631" width="60" height="60" as="geometry"/>
                </mxCell>
                <mxCell id="11" value="stop" style="ellipse;whiteSpace=wrap;html=1;fillColor=#f5f5f5;fontColor=#333333;strokeColor=#666666;" vertex="1" parent="1">
                    <mxGeometry x="-486" y="900" width="120" height="80" as="geometry"/>
                </mxCell>
                <mxCell id="12" value="page 20 ex2" style="text;html=1;align=center;verticalAlign=middle;whiteSpace=wrap;rounded=0;" vertex="1" parent="1">
                    <mxGeometry x="-570" y="26" width="60" height="30" as="geometry"/>
                </mxCell>
                <mxCell id="13" value="" style="verticalLabelPosition=bottom;verticalAlign=top;html=1;shape=card;whiteSpace=wrap;size=20;arcSize=12;fillColor=#d5e8d4;strokeColor=#82b366;" vertex="1" parent="1">
                    <mxGeometry x="-438" y="125" width="100" height="60" as="geometry"/>
                </mxCell>
                <mxCell id="14" value="a&lt;div&gt;b&lt;/div&gt;&lt;div&gt;c&lt;/div&gt;" style="text;html=1;align=center;verticalAlign=middle;whiteSpace=wrap;rounded=0;fillColor=#60a917;fontColor=#ffffff;strokeColor=#2D7600;" vertex="1" parent="1">
                    <mxGeometry x="-426" y="132.5" width="80" height="45" as="geometry"/>
                </mxCell>
                <mxCell id="15" style="edgeStyle=orthogonalEdgeStyle;rounded=0;orthogonalLoop=1;jettySize=auto;html=1;" edge="1" parent="1">
                    <mxGeometry relative="1" as="geometry">
                        <mxPoint x="-598" y="385" as="targetPoint"/>
                        <mxPoint x="-440.5" y="305" as="sourcePoint"/>
                    </mxGeometry>
                </mxCell>
                <mxCell id="16" value="b &amp;gt; a" style="strokeWidth=2;html=1;shape=mxgraph.flowchart.decision;whiteSpace=wrap;fillColor=#6a00ff;strokeColor=#3700CC;fontColor=#ffffff;" vertex="1" parent="1">
                    <mxGeometry x="-455.5" y="235" width="135" height="140" as="geometry"/>
                </mxCell>
                <mxCell id="17" style="edgeStyle=orthogonalEdgeStyle;rounded=0;orthogonalLoop=1;jettySize=auto;html=1;entryX=0.5;entryY=0;entryDx=0;entryDy=0;entryPerimeter=0;" edge="1" parent="1" source="13" target="16">
                    <mxGeometry relative="1" as="geometry"/>
                </mxCell>
                <mxCell id="18" value="c &amp;gt; b" style="strokeWidth=2;html=1;shape=mxgraph.flowchart.decision;whiteSpace=wrap;fillColor=#6a00ff;strokeColor=#3700CC;fontColor=#ffffff;" vertex="1" parent="1">
                    <mxGeometry x="-664" y="385" width="135" height="140" as="geometry"/>
                </mxCell>
                <mxCell id="19" style="edgeStyle=orthogonalEdgeStyle;rounded=0;orthogonalLoop=1;jettySize=auto;html=1;entryX=0.5;entryY=0;entryDx=0;entryDy=0;entryPerimeter=0;" edge="1" parent="1" source="16">
                    <mxGeometry relative="1" as="geometry">
                        <mxPoint x="-153" y="385" as="targetPoint"/>
                        <Array as="points">
                            <mxPoint x="-153" y="305"/>
                        </Array>
                    </mxGeometry>
                </mxCell>
                <mxCell id="20" value="&quot;not increasing..&quot;" style="strokeWidth=2;html=1;shape=mxgraph.flowchart.document2;whiteSpace=wrap;size=0.25;fillColor=#d80073;strokeColor=#A50040;fontColor=#ffffff;" vertex="1" parent="1">
                    <mxGeometry x="-204" y="385" width="100" height="60" as="geometry"/>
                </mxCell>
                <mxCell id="21" value="true" style="text;html=1;strokeColor=none;fillColor=none;align=center;verticalAlign=middle;whiteSpace=wrap;rounded=0;" vertex="1" parent="1">
                    <mxGeometry x="-564" y="290" width="60" height="30" as="geometry"/>
                </mxCell>
                <mxCell id="22" value="false" style="text;html=1;strokeColor=none;fillColor=none;align=center;verticalAlign=middle;whiteSpace=wrap;rounded=0;" vertex="1" parent="1">
                    <mxGeometry x="-264" y="290" width="60" height="30" as="geometry"/>
                </mxCell>
                <mxCell id="23" style="edgeStyle=orthogonalEdgeStyle;rounded=0;orthogonalLoop=1;jettySize=auto;html=1;" edge="1" parent="1" source="24">
                    <mxGeometry relative="1" as="geometry">
                        <mxPoint x="-610" y="630" as="targetPoint"/>
                        <Array as="points">
                            <mxPoint x="-609" y="570"/>
                        </Array>
                    </mxGeometry>
                </mxCell>
                <mxCell id="24" value="&quot;not increasing..&quot;" style="strokeWidth=2;html=1;shape=mxgraph.flowchart.document2;whiteSpace=wrap;size=0.25;fillColor=#d80073;strokeColor=#A50040;fontColor=#ffffff;" vertex="1" parent="1">
                    <mxGeometry x="-486" y="544" width="100" height="60" as="geometry"/>
                </mxCell>
                <mxCell id="25" style="edgeStyle=orthogonalEdgeStyle;rounded=0;orthogonalLoop=1;jettySize=auto;html=1;" edge="1" parent="1" source="26">
                    <mxGeometry relative="1" as="geometry">
                        <mxPoint x="-610" y="630" as="targetPoint"/>
                        <Array as="points">
                            <mxPoint x="-609" y="570"/>
                        </Array>
                    </mxGeometry>
                </mxCell>
                <mxCell id="26" value="&quot;increasing..&quot;" style="strokeWidth=2;html=1;shape=mxgraph.flowchart.document2;whiteSpace=wrap;size=0.25;fillColor=#d80073;strokeColor=#A50040;fontColor=#ffffff;" vertex="1" parent="1">
                    <mxGeometry x="-810" y="547" width="100" height="60" as="geometry"/>
                </mxCell>
                <mxCell id="27" style="edgeStyle=orthogonalEdgeStyle;rounded=0;orthogonalLoop=1;jettySize=auto;html=1;entryX=0.57;entryY=0.028;entryDx=0;entryDy=0;entryPerimeter=0;" edge="1" parent="1" source="18" target="24">
                    <mxGeometry relative="1" as="geometry"/>
                </mxCell>
                <mxCell id="28" value="false" style="edgeLabel;html=1;align=center;verticalAlign=middle;resizable=0;points=[];" vertex="1" connectable="0" parent="27">
                    <mxGeometry x="-0.6294" relative="1" as="geometry">
                        <mxPoint as="offset"/>
                    </mxGeometry>
                </mxCell>
                <mxCell id="29" style="edgeStyle=orthogonalEdgeStyle;rounded=0;orthogonalLoop=1;jettySize=auto;html=1;entryX=0.5;entryY=0;entryDx=0;entryDy=0;entryPerimeter=0;" edge="1" parent="1">
                    <mxGeometry relative="1" as="geometry">
                        <mxPoint x="-664" y="454" as="sourcePoint"/>
                        <mxPoint x="-760" y="544" as="targetPoint"/>
                        <Array as="points">
                            <mxPoint x="-760" y="454"/>
                        </Array>
                    </mxGeometry>
                </mxCell>
                <mxCell id="30" value="true" style="edgeLabel;html=1;align=center;verticalAlign=middle;resizable=0;points=[];" vertex="1" connectable="0" parent="29">
                    <mxGeometry x="-0.6057" y="1" relative="1" as="geometry">
                        <mxPoint as="offset"/>
                    </mxGeometry>
                </mxCell>
                <mxCell id="31" style="edgeStyle=orthogonalEdgeStyle;rounded=0;orthogonalLoop=1;jettySize=auto;html=1;" edge="1" parent="1" source="32" target="11">
                    <mxGeometry relative="1" as="geometry"/>
                </mxCell>
                <mxCell id="32" value="" style="verticalLabelPosition=bottom;verticalAlign=top;html=1;shape=mxgraph.flowchart.on-page_reference;" vertex="1" parent="1">
                    <mxGeometry x="-455.5" y="770" width="60" height="60" as="geometry"/>
                </mxCell>
                <mxCell id="33" style="edgeStyle=orthogonalEdgeStyle;rounded=0;orthogonalLoop=1;jettySize=auto;html=1;entryX=1;entryY=0.5;entryDx=0;entryDy=0;entryPerimeter=0;" edge="1" parent="1" source="20" target="32">
                    <mxGeometry relative="1" as="geometry"/>
                </mxCell>
            </root>
        </mxGraphModel>
    </diagram>
</mxfile>